<?xml version="1.0" standalone="no"?>
<!DOCTYPE svg PUBLIC "-//W3C//DTD SVG 20010904//EN"
 "http://www.w3.org/TR/2001/REC-SVG-20010904/DTD/svg10.dtd">
<svg version="1.0" xmlns="http://www.w3.org/2000/svg"
 width="1200.000000pt" height="1200.000000pt" viewBox="0 0 1200.000000 1200.000000"
 preserveAspectRatio="xMidYMid meet">
<metadata>
Created by potrace 1.11, written by Peter Selinger 2001-2013
</metadata>
<g transform="translate(0.000000,1200.000000) scale(0.100000,-0.100000)"
fill="#000000" stroke="none">
<path d="M5948 11345 c-2 -1 -28 -5 -58 -8 -152 -17 -221 -47 -592 -260 -175
-100 -333 -190 -350 -200 -132 -75 -470 -269 -498 -286 -19 -11 -60 -34 -90
-51 -30 -16 -73 -40 -95 -53 -68 -41 -489 -283 -505 -290 -8 -5 -33 -19 -55
-32 -22 -13 -56 -33 -75 -43 -37 -20 -134 -76 -160 -92 -8 -5 -42 -24 -75 -43
-77 -42 -465 -264 -485 -277 -8 -5 -53 -31 -100 -58 -47 -27 -101 -58 -120
-69 -119 -69 -733 -420 -770 -441 -25 -14 -57 -33 -72 -43 -14 -11 -29 -19
-33 -19 -9 0 -169 -95 -225 -133 -64 -45 -188 -172 -234 -241 -50 -76 -101
-180 -121 -249 -9 -30 -19 -65 -23 -78 -11 -39 -12 -4665 -1 -4734 15 -93 60
-213 115 -305 56 -96 196 -244 284 -302 54 -35 306 -181 490 -285 52 -29 102
-57 110 -62 17 -11 224 -131 290 -169 79 -45 632 -362 725 -417 98 -57 279
-161 335 -192 49 -28 333 -192 595 -343 188 -109 685 -395 795 -458 19 -11
107 -61 195 -112 88 -51 180 -104 205 -118 25 -14 92 -52 149 -85 174 -100
304 -138 481 -142 82 -1 130 4 258 31 74 15 165 61 502 256 129 75 251 145
271 156 46 25 692 396 1099 630 168 97 330 189 360 205 30 16 62 34 70 41 8 6
24 16 35 22 24 13 483 275 610 349 50 28 110 63 135 77 25 14 149 85 275 158
127 73 273 157 325 186 52 30 102 59 110 64 8 5 87 50 175 101 238 136 322
203 422 339 78 107 142 250 161 363 4 23 7 1095 7 2382 l0 2340 -23 78 c-62
214 -199 403 -381 526 -47 32 -220 134 -296 175 -11 6 -51 30 -90 53 -38 23
-295 171 -570 329 -275 158 -513 295 -530 305 -16 10 -37 22 -45 26 -8 4 -62
34 -120 68 -58 34 -112 64 -120 68 -8 4 -31 17 -50 28 -61 37 -213 125 -260
151 -25 14 -218 125 -430 248 -212 122 -401 231 -420 241 -19 11 -51 29 -70
40 -33 20 -475 274 -550 317 -19 10 -118 68 -220 127 -245 141 -305 168 -443
195 -50 10 -222 21 -229 15z m217 -388 c39 -13 221 -111 405 -217 184 -106
360 -206 390 -223 30 -17 83 -48 118 -69 34 -21 64 -38 66 -38 2 0 55 -30 117
-66 63 -37 139 -80 169 -96 30 -17 67 -39 82 -49 14 -11 28 -19 31 -19 3 0 74
-40 159 -88 84 -49 173 -100 198 -114 25 -14 88 -50 140 -80 160 -93 503 -290
540 -310 19 -11 50 -28 69 -39 46 -27 702 -404 1131 -649 195 -112 380 -220
410 -241 74 -50 142 -123 184 -200 71 -130 66 65 66 -2469 l-1 -2285 -22 -66
c-51 -148 -148 -259 -309 -349 -195 -110 -758 -420 -763 -420 -2 0 -7 15 -10
32 -25 111 -97 280 -170 394 -153 240 -431 455 -695 539 -30 10 -58 20 -62 24
-4 3 -8 57 -9 118 -2 179 -37 223 -173 223 l-66 0 0 154 c0 165 -8 204 -49
250 -63 70 -182 76 -249 13 -54 -50 -62 -83 -62 -257 l0 -160 -215 0 -216 0
108 108 c211 209 384 480 479 747 15 41 32 75 38 76 137 9 270 72 376 178 107
108 163 232 177 387 5 60 3 72 -11 77 -15 6 -16 64 -16 651 0 635 0 645 20
651 38 12 119 97 147 153 59 121 29 285 -71 385 -169 169 -477 93 -572 -141
-42 -104 -27 -171 70 -315 l46 -69 0 -374 -1 -374 -27 14 c-15 8 -50 17 -77
21 -67 10 -87 14 -90 17 -2 2 -20 48 -40 103 -247 660 -788 1140 -1465 1299
-110 26 -131 30 -245 43 -90 10 -348 10 -445 -1 -114 -12 -303 -54 -417 -91
-441 -147 -777 -403 -1068 -810 -74 -104 -163 -278 -225 -439 -34 -89 -50
-120 -64 -122 -157 -23 -347 -174 -425 -337 -82 -172 -87 -344 -14 -522 31
-75 99 -171 156 -221 61 -54 162 -111 227 -130 97 -28 95 -26 124 -111 95
-267 274 -543 494 -760 l94 -92 -508 -3 c-509 -3 -509 -3 -553 -26 -48 -25
-57 -33 -89 -79 -20 -28 -22 -43 -22 -165 l0 -133 -59 -32 c-213 -117 -418
-331 -540 -564 -59 -112 -84 -176 -116 -301 -13 -51 -27 -92 -32 -91 -4 1 -80
43 -168 93 -88 51 -180 103 -205 117 -500 281 -576 327 -641 393 -65 66 -127
170 -146 245 -4 17 -9 1062 -10 2324 -3 2515 -7 2347 54 2468 35 68 130 174
196 217 48 31 160 96 732 424 110 63 214 123 230 133 17 10 37 22 45 26 8 4
38 20 65 36 28 16 156 91 285 165 129 74 321 185 425 245 105 60 211 122 237
136 26 14 150 85 275 158 371 214 995 573 1038 598 22 12 101 57 175 100 440
255 498 284 590 298 69 10 188 -2 255 -26z m140 -3478 c296 -47 597 -182 810
-363 83 -70 134 -121 110 -109 -11 6 -42 21 -70 33 -27 12 -63 28 -80 36 -79
35 -204 75 -280 90 -11 2 -54 10 -95 18 -108 21 -1297 21 -1414 0 -111 -20
-226 -55 -342 -104 -133 -56 -132 -56 -104 -28 134 129 328 251 530 332 63 26
250 78 320 90 19 3 46 8 60 11 14 3 77 8 140 11 63 4 116 7 117 8 6 4 238 -15
298 -25z m479 -672 c118 -33 223 -75 301 -122 32 -19 60 -35 62 -35 3 0 42
-29 87 -64 240 -187 408 -460 471 -761 14 -67 14 -209 0 -280 -42 -213 -77
-327 -150 -480 -313 -663 -1001 -1055 -1722 -981 -117 11 -313 52 -368 77 -11
4 -51 20 -89 34 -103 38 -270 128 -369 199 -258 185 -472 452 -580 726 -28 72
-74 211 -81 250 -3 14 -8 36 -12 50 -4 14 -9 139 -11 279 -5 281 -3 296 69
449 161 341 557 634 918 678 25 3 47 8 49 10 3 2 302 3 665 1 l661 -3 99 -27z
m-1024 -4473 l0 -1265 -27 19 c-28 20 -454 269 -1203 704 -217 127 -406 238
-420 248 -15 10 -48 30 -75 44 -28 15 -88 49 -134 76 -46 28 -88 50 -92 50 -5
0 -9 4 -9 9 0 5 -8 11 -17 15 -10 3 -25 10 -33 15 -8 5 -44 27 -80 48 -36 21
-72 43 -81 48 -9 6 -34 20 -55 32 -238 132 -420 246 -425 266 -3 12 -1 47 3
77 5 30 10 69 13 85 25 167 143 384 285 524 142 141 317 229 520 264 14 2 431
5 928 6 l902 1 0 -1266z m2481 1253 c153 -41 234 -76 339 -145 235 -155 398
-423 435 -716 4 -27 0 -35 -18 -43 -12 -6 -123 -70 -247 -143 -124 -73 -234
-138 -245 -144 -11 -6 -193 -112 -403 -236 -435 -256 -436 -257 -477 -279 -16
-9 -41 -24 -55 -33 -14 -9 -44 -26 -67 -39 -23 -13 -138 -80 -254 -149 -117
-69 -238 -140 -268 -157 -158 -92 -199 -115 -226 -132 -407 -244 -611 -352
-629 -334 -3 4 -6 582 -6 1285 l0 1279 1048 -4 c576 -1 1059 -6 1073 -10z"/>
<path d="M5165 9521 c-66 -16 -107 -55 -155 -151 -26 -51 -36 -61 -97 -93
-105 -55 -143 -104 -143 -186 0 -82 38 -132 142 -186 56 -29 67 -40 103 -103
51 -90 78 -118 129 -135 53 -17 99 -13 149 15 31 18 51 41 86 105 43 75 51 84
110 115 112 58 159 127 145 215 -11 74 -48 112 -166 173 -30 16 -52 35 -59 53
-7 16 -29 55 -49 86 -50 77 -119 109 -195 92z"/>
<path d="M7300 9288 c-313 -48 -526 -360 -456 -668 58 -253 285 -438 538 -438
156 0 283 53 394 163 263 262 209 691 -111 876 -102 60 -244 86 -365 67z"/>
<path d="M2744 7611 c-46 -21 -78 -59 -118 -138 -22 -45 -35 -57 -101 -93
-129 -71 -169 -160 -119 -266 16 -33 84 -94 106 -94 4 0 25 -11 46 -24 26 -16
53 -49 84 -104 54 -91 94 -123 165 -127 49 -3 107 16 136 45 11 9 38 50 60 91
38 67 49 77 114 114 40 22 82 51 94 63 26 29 47 95 42 140 -6 69 -41 110 -143
165 -59 32 -69 42 -106 108 -53 95 -97 131 -166 136 -38 3 -65 -2 -94 -16z"/>
<path d="M9455 7360 c-66 -14 -103 -50 -156 -151 -28 -52 -41 -65 -89 -89
-106 -54 -153 -112 -151 -189 2 -85 39 -132 151 -192 53 -28 65 -40 90 -89 68
-135 150 -181 255 -142 49 18 76 47 122 132 33 60 43 70 114 109 42 24 86 56
97 70 25 34 42 92 37 129 -10 74 -43 113 -141 166 -64 35 -73 44 -108 107 -20
38 -47 79 -59 90 -46 43 -106 61 -162 49z"/>
<path d="M6287 6359 c-110 -17 -177 -137 -137 -245 14 -37 803 -828 846 -849
104 -49 239 25 251 138 11 92 11 92 -416 520 -218 219 -408 405 -423 413 -50
26 -72 30 -121 23z"/>
<path d="M6420 5454 c-52 -17 -106 -72 -119 -121 -9 -33 -9 -43 5 -108 5 -21
60 -84 188 -213 99 -101 195 -192 213 -203 106 -66 252 4 268 129 10 83 -4
104 -203 304 -223 225 -255 244 -352 212z"/>
<path d="M4330 3183 c-241 -62 -383 -305 -315 -539 36 -123 113 -213 235 -272
67 -32 85 -36 165 -38 127 -4 221 31 315 118 109 101 159 273 120 418 -61 227
-298 370 -520 313z"/>
<path d="M6563 2779 c-35 -10 -238 -204 -272 -260 -27 -44 -28 -122 -2 -169
42 -81 144 -117 226 -81 45 20 247 217 273 266 8 16 15 51 15 76 -2 123 -118
205 -240 168z"/>
<path d="M6555 2121 c-50 -22 -252 -223 -272 -270 -60 -141 77 -289 224 -240
26 8 74 49 160 135 121 123 134 142 138 214 1 28 -26 94 -48 118 -51 55 -135
73 -202 43z"/>
</g>
</svg>
